<svg id="Layer_1" data-name="Layer 1" xmlns="http://www.w3.org/2000/svg" viewBox="0 0 203.21 89.5"><defs><style>.cls-1{fill:#fff;}</style></defs><title>logo-branca</title><path class="cls-1" d="M81.09,87.26h-67a9,9,0,0,1-9-9v-67a9,9,0,0,1,9-9h67a9,9,0,0,1,9,9v8.86H88.21V11.25a7.12,7.12,0,0,0-7.12-7.12h-67A7.13,7.13,0,0,0,7,11.25v67a7.14,7.14,0,0,0,7.12,7.12h67a7.13,7.13,0,0,0,7.12-7.12V70.77H90.1v7.48A9,9,0,0,1,81.09,87.26Z"/><path class="cls-1" d="M104.18,40.85h-1.87V30.14H98.17v-1.7h10.15v1.7h-4.14Z"/><path class="cls-1" d="M118.65,40.85h-9V28.44h8.7v1.7h-6.83v3.57h6.09V35.4h-6.09v3.75h7.09Z"/><path class="cls-1" d="M126.31,41a6.75,6.75,0,0,1-3.3-.81,6,6,0,0,1-2.33-2.26,6.63,6.63,0,0,1,0-6.46A6.08,6.08,0,0,1,123,29.15a6.79,6.79,0,0,1,3.31-.81,7,7,0,0,1,2.54.46,5.39,5.39,0,0,1,2,1.36l.2.22-1.22,1.22-.22-.22a4.36,4.36,0,0,0-3.26-1.31,4.8,4.8,0,0,0-2.39.61,4.25,4.25,0,0,0-1.68,1.63,4.77,4.77,0,0,0,0,4.67A4.34,4.34,0,0,0,124,38.62a4.79,4.79,0,0,0,2.39.6,4.3,4.3,0,0,0,3.26-1.32l.22-.23,1.22,1.23-.2.22a5.35,5.35,0,0,1-2,1.36A6.84,6.84,0,0,1,126.31,41Z"/><path class="cls-1" d="M143.46,40.85h-1.85V35.41h-6.75v5.44H133V28.44h1.87v5.25h6.75V28.44h1.85Z"/><path class="cls-1" d="M103.59,61.16a7.92,7.92,0,0,1-2.62-.44,5,5,0,0,1-2-1.19l-.15-.16.78-1.54.31.3a4.39,4.39,0,0,0,1.59,1,5.84,5.84,0,0,0,2.08.37,3.67,3.67,0,0,0,2.18-.52,1.48,1.48,0,0,0,.67-1.25,1.19,1.19,0,0,0-.34-.91,2.62,2.62,0,0,0-.94-.58,16.79,16.79,0,0,0-1.7-.48,16.82,16.82,0,0,1-2.16-.67,3.81,3.81,0,0,1-1.48-1,2.87,2.87,0,0,1-.64-1.94,3.28,3.28,0,0,1,.52-1.79A3.58,3.58,0,0,1,101.29,49a6.18,6.18,0,0,1,2.55-.47,7.18,7.18,0,0,1,2.06.3,6,6,0,0,1,1.77.8l.21.15-.67,1.57-.31-.21a5.66,5.66,0,0,0-1.5-.69,5.78,5.78,0,0,0-1.56-.23,3.6,3.6,0,0,0-2.15.53,1.56,1.56,0,0,0-.66,1.3,1.22,1.22,0,0,0,.34.91,2.5,2.5,0,0,0,1,.58,16.69,16.69,0,0,0,1.72.49,18.85,18.85,0,0,1,2.13.65,3.75,3.75,0,0,1,1.48,1,2.83,2.83,0,0,1,.63,1.92,3.21,3.21,0,0,1-.53,1.79,3.5,3.5,0,0,1-1.61,1.28A6.51,6.51,0,0,1,103.59,61.16Z"/><path class="cls-1" d="M115.84,61.16a6.76,6.76,0,0,1-3.32-.83h0a5.92,5.92,0,0,1-2.34-2.26,6.59,6.59,0,0,1,0-6.44,5.92,5.92,0,0,1,2.34-2.26,7.07,7.07,0,0,1,6.63,0,6,6,0,0,1,2.33,2.26,6.56,6.56,0,0,1,0,6.46,6,6,0,0,1-2.33,2.26A6.77,6.77,0,0,1,115.84,61.16Zm0-10.88a4.88,4.88,0,0,0-2.38.59,4.31,4.31,0,0,0-1.67,1.64,4.86,4.86,0,0,0,0,4.68,4.31,4.31,0,0,0,1.67,1.64,5.1,5.1,0,0,0,4.76,0,4.38,4.38,0,0,0,1.65-1.63,5,5,0,0,0,0-4.7,4.38,4.38,0,0,0-1.65-1.63A4.83,4.83,0,0,0,115.84,50.28Z"/><path class="cls-1" d="M133,61.05H124.5V48.65h1.87v10.7H133Z"/><path class="cls-1" d="M139.26,61.16a5.09,5.09,0,0,1-3.79-1.41h0a5.57,5.57,0,0,1-1.37-4V48.65H136v7a4.13,4.13,0,0,0,.84,2.85,3.78,3.78,0,0,0,4.92,0,4.13,4.13,0,0,0,.84-2.85v-7h1.84v7.06a5.61,5.61,0,0,1-1.36,4A5.08,5.08,0,0,1,139.26,61.16Z"/><path class="cls-1" d="M151.46,61.05h-1.87V50.35h-4.14v-1.7H155.6v1.7h-4.14Z"/><path class="cls-1" d="M158.84,61.05H157V48.65h1.87Z"/><path class="cls-1" d="M167.51,61.16a6.76,6.76,0,0,1-3.32-.83h0a6,6,0,0,1-2.34-2.26,6.59,6.59,0,0,1,0-6.44,6,6,0,0,1,2.34-2.26,7.07,7.07,0,0,1,6.63,0,6,6,0,0,1,2.33,2.26,6.5,6.5,0,0,1,0,6.46,6,6,0,0,1-2.33,2.26A6.77,6.77,0,0,1,167.51,61.16Zm0-10.88a4.88,4.88,0,0,0-2.38.59,4.29,4.29,0,0,0-1.66,1.64,4.79,4.79,0,0,0,0,4.68,4.29,4.29,0,0,0,1.66,1.64,4.88,4.88,0,0,0,2.38.59,4.83,4.83,0,0,0,2.38-.59h0a4.31,4.31,0,0,0,1.65-1.63,4.9,4.9,0,0,0,0-4.7,4.31,4.31,0,0,0-1.65-1.63A4.83,4.83,0,0,0,167.51,50.28Z"/><path class="cls-1" d="M186.65,61.05h-1.49l-7.11-9v9h-1.87V48.65h1.49l7.13,9v-9h1.85Z"/><path class="cls-1" d="M193.43,61.16a7.92,7.92,0,0,1-2.62-.44,5,5,0,0,1-2-1.19l-.15-.16.79-1.54.3.3a4.39,4.39,0,0,0,1.59,1,5.84,5.84,0,0,0,2.08.37,3.7,3.7,0,0,0,2.19-.52,1.5,1.5,0,0,0,.66-1.25,1.19,1.19,0,0,0-.34-.91,2.54,2.54,0,0,0-.94-.58,16.79,16.79,0,0,0-1.7-.48,17.34,17.34,0,0,1-2.16-.67,3.71,3.71,0,0,1-1.47-1,2.83,2.83,0,0,1-.65-1.94,3.21,3.21,0,0,1,.53-1.79A3.5,3.5,0,0,1,191.13,49a6.21,6.21,0,0,1,2.55-.47,7.18,7.18,0,0,1,2.06.3,6,6,0,0,1,1.77.8l.21.15-.67,1.57-.31-.21a5.52,5.52,0,0,0-1.5-.69,5.72,5.72,0,0,0-1.56-.23,3.55,3.55,0,0,0-2.14.53,1.53,1.53,0,0,0-.66,1.3,1.26,1.26,0,0,0,.33.91,2.57,2.57,0,0,0,1,.58,16.69,16.69,0,0,0,1.72.49,18.85,18.85,0,0,1,2.13.65,3.75,3.75,0,0,1,1.48,1,2.83,2.83,0,0,1,.63,1.92,3.21,3.21,0,0,1-.53,1.79A3.5,3.5,0,0,1,196,60.7,6.51,6.51,0,0,1,193.43,61.16Z"/><path class="cls-1" d="M51.24,28.73V60.38H46.72V46.27H28.55V60.38H24V28.73h4.52V42.34H46.72V28.73Z"/><path class="cls-1" d="M79.15,57,74.87,50.8l-9.62,0v9.63H60.73V28.73H73.17a17,17,0,0,1,7.08,1.39,9.84,9.84,0,0,1,6.06,9.74,10.49,10.49,0,0,1-1.76,6.07,11,11,0,0,1-5.24,3.82l4,5.77a10.73,10.73,0,0,0,4.91,4.22h0c.72.18.47.73.3.78a7.32,7.32,0,0,1-1,.19,11.64,11.64,0,0,1-2.91-.07C82.13,60.4,80.57,59.05,79.15,57Zm-.62-23.19c-1.39-.93-3.3-1.21-5.86-1.21l-7.42,0V46.91H73.5a9.09,9.09,0,0,0,6.1-2,6.82,6.82,0,0,0,2.15-5.22A6.5,6.5,0,0,0,78.53,33.84Z"/></svg>